<svg width="232" height="52" viewBox="0 0 232 52" fill="none" xmlns="http://www.w3.org/2000/svg">
<path d="M85.1606 17.4404H79.8311V43.0239H85.1606V32.6522H96.8512V43.0239H102.009V17.4404H96.8512V27.8121H85.1606V17.4404ZM126.078 32.1336C126.078 36.2823 124.015 38.5295 120.232 38.5295C116.45 38.5295 114.387 36.2823 114.387 31.9608V17.4404H109.23V32.1336C109.23 39.3938 113.184 43.5425 120.232 43.5425C127.281 43.5425 131.235 39.3938 131.235 31.9608V17.4404H126.078V32.1336ZM175.935 17.4404L170.09 35.0723L164.416 17.4404H158.915L167.855 43.0239H172.153L177.998 26.2564L183.671 43.0239H188.141L196.909 17.4404H191.58L185.906 35.0723L180.061 17.4404H175.935ZM215.649 27.2935H206.193V22.1077H219.947V17.4404H201.035V43.0239H220.462V38.3566H206.193V31.9608H215.649V27.2935ZM226.652 17.4404H231.809V43.0239H226.652V17.4404ZM153.069 37.6652L155.304 43.0239H160.806L149.631 17.4404L149.459 17.2676H144.989L133.814 43.0239H139.144L141.379 38.0109L141.551 37.6652H153.069ZM147.224 23.8363L150.834 32.4794L151.006 32.9979H143.098L143.27 32.4794L147.224 23.8363Z" fill="#120D26"/>
<path d="M28.9424 40.4309C28.9424 40.4309 29.1143 40.2581 28.9424 40.2581C21.034 22.972 10.203 9.66164 10.203 9.66164C10.203 9.66164 4.3577 15.1932 4.70154 20.8976C4.87346 25.2192 8.13997 27.6392 8.13997 27.6392C13.2976 32.6522 25.6759 39.048 28.5986 40.4309H28.9424ZM26.8794 44.7525C26.8794 44.5796 26.5355 44.5796 26.5355 44.5796L5.90499 45.271C8.13997 49.2469 11.9222 52.3584 15.8764 51.4941C18.6271 50.8026 24.8163 46.4811 26.7074 45.0982C27.0513 44.7525 26.8794 44.7525 26.8794 44.7525ZM27.2232 42.851C27.3951 42.6781 27.2232 42.5053 27.2232 42.5053C18.1114 36.2823 0.575438 26.9478 0.575438 26.9478C-0.971851 31.9607 1.0912 35.9365 1.0912 35.9365C3.32618 40.7767 7.6242 42.1595 7.6242 42.1595C9.51533 43.0239 11.5784 43.0239 11.5784 43.0239H27.0513C27.2232 43.0239 27.2232 42.851 27.2232 42.851ZM28.5986 0.672861C27.739 0.672861 25.3321 1.36431 25.3321 1.36431C19.8306 2.7472 18.6271 7.76017 18.6271 7.76017C17.5956 10.8717 18.6271 14.3289 18.6271 14.3289C20.5183 22.4534 29.4582 35.9365 31.3493 38.7023L31.5212 38.8752C31.6932 38.8752 31.6932 38.7023 31.6932 38.7023C34.7877 8.45162 28.5986 0.672861 28.5986 0.672861ZM35.4754 38.7023C35.6473 38.7023 35.8193 38.5295 35.8193 38.5295C37.8823 35.5908 46.6503 22.2805 48.5414 14.156C48.5414 14.156 49.5729 10.1802 48.5414 7.58731C48.5414 7.58731 47.166 2.57433 41.6646 1.19144C41.6646 1.19144 40.1173 0.845722 38.3981 0.5C38.3981 0.5 32.2089 8.45162 35.3035 38.3566C35.3035 38.7023 35.4754 38.7023 35.4754 38.7023ZM40.2892 44.5796C40.2892 44.5796 40.1173 44.5796 40.1173 44.7525V45.0982C42.1803 46.4811 48.0257 50.8026 50.9483 51.4941C50.9483 51.4941 56.2779 53.3955 60.9197 45.271L40.2892 44.5796ZM66.5931 26.7749C66.5931 26.7749 49.0572 36.2823 39.9454 42.5053C39.9454 42.5053 39.7734 42.6781 39.7734 42.851C39.7734 42.851 39.7734 43.0239 39.9454 43.0239H55.7621C55.7621 43.0239 57.3094 43.0239 59.3724 42.1595C59.3724 42.1595 63.6705 40.7767 66.0774 35.7637C66.0774 35.5908 68.1404 31.615 66.5931 26.7749ZM38.2262 40.4309C38.2262 40.4309 38.3981 40.6038 38.57 40.4309C41.4927 38.8752 53.871 32.6522 59.0286 27.6392C59.0286 27.6392 62.2951 25.0463 62.467 20.8976C62.8109 15.0203 56.9655 9.66164 56.9655 9.66164C56.9655 9.66164 46.1345 22.6262 38.2262 40.0852C38.2262 40.0852 38.0542 40.2581 38.2262 40.4309Z" fill="#120D26"/>
</svg>
