<svg width="111" height="73" viewBox="0 0 111 73" fill="none" xmlns="http://www.w3.org/2000/svg">
<path d="M31.872 19.804L20.208 42.364V53.5H12V42.364L0.336 19.804H9.648L16.176 33.916L22.656 19.804H31.872ZM47.8511 53.884C45.2271 53.884 42.8591 53.324 40.7471 52.204C38.6671 51.084 37.0191 49.484 35.8031 47.404C34.6191 45.324 34.0271 42.892 34.0271 40.108C34.0271 37.356 34.6351 34.94 35.8511 32.86C37.0671 30.748 38.7311 29.132 40.8431 28.012C42.9551 26.892 45.3231 26.332 47.9471 26.332C50.5711 26.332 52.9391 26.892 55.0511 28.012C57.1631 29.132 58.8271 30.748 60.0431 32.86C61.2591 34.94 61.8671 37.356 61.8671 40.108C61.8671 42.86 61.2431 45.292 59.9951 47.404C58.7791 49.484 57.0991 51.084 54.9551 52.204C52.8431 53.324 50.4751 53.884 47.8511 53.884ZM47.8511 46.78C49.4191 46.78 50.7471 46.204 51.8351 45.052C52.9551 43.9 53.5151 42.252 53.5151 40.108C53.5151 37.964 52.9711 36.316 51.8831 35.164C50.8271 34.012 49.5151 33.436 47.9471 33.436C46.3471 33.436 45.0191 34.012 43.9631 35.164C42.9071 36.284 42.3791 37.932 42.3791 40.108C42.3791 42.252 42.8911 43.9 43.9151 45.052C44.9711 46.204 46.2831 46.78 47.8511 46.78ZM76.8776 26.332C78.7656 26.332 80.4136 26.716 81.8216 27.484C83.2616 28.252 84.3656 29.26 85.1336 30.508V26.716H93.3416V53.452C93.3416 55.916 92.8456 58.14 91.8536 60.124C90.8936 62.14 89.4056 63.74 87.3896 64.924C85.4056 66.108 82.9256 66.7 79.9496 66.7C75.9816 66.7 72.7656 65.756 70.3016 63.868C67.8376 62.012 66.4296 59.484 66.0776 56.284H74.1896C74.4456 57.308 75.0536 58.108 76.0136 58.684C76.9736 59.292 78.1576 59.596 79.5656 59.596C81.2616 59.596 82.6056 59.1 83.5976 58.108C84.6216 57.148 85.1336 55.596 85.1336 53.452V49.66C84.3336 50.908 83.2296 51.932 81.8216 52.732C80.4136 53.5 78.7656 53.884 76.8776 53.884C74.6696 53.884 72.6696 53.324 70.8776 52.204C69.0856 51.052 67.6616 49.436 66.6056 47.356C65.5816 45.244 65.0696 42.812 65.0696 40.06C65.0696 37.308 65.5816 34.892 66.6056 32.812C67.6616 30.732 69.0856 29.132 70.8776 28.012C72.6696 26.892 74.6696 26.332 76.8776 26.332ZM85.1336 40.108C85.1336 38.06 84.5576 36.444 83.4056 35.26C82.2856 34.076 80.9096 33.484 79.2776 33.484C77.6456 33.484 76.2536 34.076 75.1016 35.26C73.9816 36.412 73.4216 38.012 73.4216 40.06C73.4216 42.108 73.9816 43.74 75.1016 44.956C76.2536 46.14 77.6456 46.732 79.2776 46.732C80.9096 46.732 82.2856 46.14 83.4056 44.956C84.5576 43.772 85.1336 42.156 85.1336 40.108ZM103.888 23.932C102.448 23.932 101.264 23.516 100.336 22.684C99.4398 21.82 98.9918 20.764 98.9918 19.516C98.9918 18.236 99.4398 17.18 100.336 16.348C101.264 15.484 102.448 15.052 103.888 15.052C105.296 15.052 106.448 15.484 107.344 16.348C108.272 17.18 108.736 18.236 108.736 19.516C108.736 20.764 108.272 21.82 107.344 22.684C106.448 23.516 105.296 23.932 103.888 23.932ZM107.968 26.716V53.5H99.7598V26.716H107.968Z" fill="#FF7058"/>
</svg>
